<?xml version="1.0" standalone="no"?>
<!DOCTYPE svg PUBLIC "-//W3C//DTD SVG 20010904//EN"
 "http://www.w3.org/TR/2001/REC-SVG-20010904/DTD/svg10.dtd">
<svg version="1.0" xmlns="http://www.w3.org/2000/svg"
 width="512.000000pt" height="512.000000pt" viewBox="0 0 512.000000 512.000000"
 preserveAspectRatio="xMidYMid meet">
<metadata>
Created by potrace 1.11, written by Peter Selinger 2001-2013
</metadata>
<g transform="translate(0.000000,512.000000) scale(0.100000,-0.100000)"
fill="#000000" stroke="none">
<path d="M0 2560 l0 -2560 2560 0 2560 0 0 2560 0 2560 -2560 0 -2560 0 0
-2560z m2816 984 c19 -9 34 -20 34 -24 0 -5 17 -19 38 -31 20 -13 39 -26 42
-30 3 -3 20 -14 37 -23 39 -20 157 -118 201 -166 62 -70 111 -134 107 -140 -2
-4 -51 -10 -107 -13 -148 -8 -217 -37 -218 -93 0 -49 57 -57 185 -24 142 36
224 23 258 -42 36 -67 40 -73 109 -167 73 -99 76 -107 56 -172 -6 -23 -19 -41
-30 -45 -27 -8 -34 2 -14 21 24 24 20 27 -26 20 l-43 -7 19 21 c16 18 17 21 3
27 -8 3 -25 0 -37 -6 -27 -14 -37 -6 -20 15 18 22 5 30 -28 16 -20 -9 -36 -9
-56 -1 -15 5 -66 10 -114 10 -80 0 -93 -3 -157 -36 -79 -41 -178 -136 -195
-190 -15 -46 -3 -63 20 -27 23 36 76 93 88 93 5 0 7 -13 4 -28 -2 -15 3 -43
10 -62 l14 -35 155 4 c98 2 156 7 161 14 17 28 19 105 4 142 -20 47 -15 53 21
30 55 -36 122 -123 106 -139 -4 -3 5 -6 18 -6 14 0 30 5 36 11 13 13 67 3 58
-11 -3 -5 -8 -83 -11 -172 -5 -182 -5 -180 -42 -298 -14 -47 -25 -88 -24 -93
1 -4 -2 -7 -6 -7 -5 0 -22 -26 -38 -57 -15 -32 -39 -74 -51 -93 -13 -19 -29
-44 -36 -54 -6 -11 -20 -26 -31 -35 -10 -9 -24 -22 -30 -29 -36 -44 -193 -194
-245 -236 -13 -10 -62 -34 -110 -53 -47 -19 -96 -41 -108 -49 -12 -8 -34 -14
-48 -14 -19 0 -25 5 -25 23 0 14 3 18 8 10 6 -9 11 -7 20 7 8 14 9 21 0 26 -7
4 -8 3 -4 -4 4 -8 0 -12 -11 -12 -15 1 -14 4 8 23 15 12 41 31 60 42 59 35 64
39 105 75 41 35 76 81 87 113 9 25 -5 21 -48 -13 -20 -16 -42 -27 -48 -23 -6
3 -7 1 -3 -5 8 -13 -41 -61 -62 -62 -7 0 -21 -8 -32 -17 -10 -10 -41 -26 -67
-36 -26 -10 -55 -22 -63 -26 -8 -4 -23 -7 -32 -5 -10 1 -18 -2 -18 -8 0 -20
-141 -4 -195 22 -27 13 -57 25 -65 26 -8 2 -21 12 -29 23 -7 12 -19 21 -26 21
-6 0 -24 12 -38 28 -15 15 -35 34 -45 43 -9 9 -37 38 -62 64 -57 61 -67 38
-17 -38 55 -81 225 -235 242 -219 4 4 2 -4 -5 -18 -12 -22 -12 -24 3 -12 13
11 15 10 10 -9 -5 -19 -3 -21 13 -15 10 4 15 4 11 0 -14 -15 61 -41 130 -46
17 -1 29 -6 27 -10 -7 -11 -110 -10 -132 1 -9 5 -37 14 -62 21 -25 6 -97 37
-160 68 -97 47 -127 68 -191 131 -42 42 -80 83 -85 92 -5 10 -28 39 -52 65
-107 122 -191 273 -225 404 -40 155 -50 206 -50 268 -1 100 13 232 29 270 7
18 13 38 11 45 -4 19 36 20 69 2 l33 -17 52 52 c47 47 100 80 128 80 5 0 -1
-19 -14 -42 -31 -53 -33 -120 -6 -147 11 -11 40 -22 72 -25 30 -4 78 -12 107
-17 29 -6 60 -8 67 -5 8 3 17 1 20 -4 4 -6 10 -10 15 -10 15 0 60 77 60 102 0
21 3 20 34 -14 19 -21 37 -46 41 -57 3 -10 12 -22 21 -25 35 -13 -22 123 -76
181 -45 50 -116 101 -158 114 -20 6 -82 15 -137 18 -55 4 -109 11 -119 16 -16
7 -18 5 -14 -13 6 -23 -15 -32 -27 -12 -3 6 -16 10 -27 10 -20 0 -21 -1 -3
-20 24 -26 16 -33 -24 -19 -40 14 -50 6 -26 -21 18 -20 17 -20 -8 -20 -14 0
-29 5 -32 10 -12 19 -24 -1 -19 -30 6 -26 4 -28 -15 -23 -20 5 -21 6 -4 20 10
8 13 12 6 9 -17 -9 -14 122 4 162 8 17 19 32 24 32 5 0 9 5 9 11 0 6 13 29 29
53 22 32 49 52 113 84 75 38 91 42 156 42 45 0 100 -8 145 -22 102 -30 173
-35 198 -12 10 9 19 23 19 30 0 27 -51 72 -97 85 -65 19 -293 19 -351 0 -23
-8 -44 -12 -47 -9 -8 7 122 141 175 180 125 93 246 141 474 187 81 17 154 35
164 40 25 15 59 13 98 -5z m-736 -864 c8 -14 8 -26 0 -40 -18 -33 -70 -23 -70
14 0 45 50 63 70 26z m1035 -81 c4 -5 4 -21 1 -35 -11 -43 -76 -29 -76 16 0 5
12 13 28 18 36 14 40 14 47 1z m-1626 -423 c10 -42 9 -52 -4 -65 -12 -12 -19
-13 -33 -4 -9 6 -15 17 -13 25 2 7 3 21 3 31 0 9 4 17 10 17 7 0 6 5 -2 15 -9
11 -9 22 2 51 l13 37 6 -29 c4 -16 12 -51 18 -78z m2221 -212 c0 -15 -6 -24
-15 -24 -16 0 -19 17 -9 44 9 22 24 10 24 -20z"/>
<path d="M1750 2371 c-16 -31 -12 -51 10 -51 23 0 43 32 34 54 -8 22 -31 20
-44 -3z"/>
<path d="M2366 2134 c-9 -22 -8 -24 9 -18 8 4 15 12 15 20 0 19 -16 18 -24 -2z"/>
<path d="M2805 2122 c8 -27 -21 -89 -48 -104 -11 -6 -57 -13 -103 -16 -99 -6
-216 19 -238 50 -30 42 -74 -18 -46 -62 5 -9 24 -15 47 -15 31 0 38 -4 38 -19
0 -25 30 -35 128 -42 116 -9 187 7 226 52 17 19 31 38 32 42 0 4 3 19 5 34 3
15 -2 41 -11 57 -19 37 -40 52 -30 23z"/>
<path d="M2010 1920 c-25 -15 -1 -63 38 -75 17 -5 32 -15 32 -22 0 -7 5 -13
10 -13 6 0 10 -7 10 -16 0 -27 73 -154 92 -160 9 -3 20 -14 23 -25 4 -10 9
-19 13 -19 4 0 18 -10 32 -21 14 -11 19 -18 13 -14 -7 3 -13 4 -13 0 0 -3 12
-10 26 -15 17 -7 24 -16 21 -25 -4 -8 -1 -12 6 -9 7 2 24 -7 39 -21 15 -14 32
-25 38 -25 6 0 9 -4 6 -9 -9 -15 94 -43 181 -50 63 -5 94 -3 133 10 27 9 52
14 55 11 3 -3 5 0 5 7 0 9 8 11 21 8 17 -5 18 -3 7 11 -7 9 -9 14 -4 10 9 -8
102 53 122 80 8 9 14 13 14 8 0 -5 21 12 46 38 43 43 55 59 99 144 13 24 24
32 45 32 27 0 60 26 60 48 0 43 -87 69 -112 34 -24 -35 -49 -40 -133 -31 -116
12 -240 11 -306 -3 -50 -10 -63 -9 -115 9 -70 25 -187 42 -301 44 -79 2 -82 3
-93 29 -15 37 -74 53 -110 30z m700 -187 c108 -13 71 -28 -68 -27 -138 0 -332
28 -332 48 0 11 226 -1 400 -21z m-193 -244 c15 -6 51 -11 78 -11 36 0 45 -2
30 -8 -11 -5 -33 -9 -49 -9 -38 -1 -107 20 -100 30 7 11 7 11 41 -2z"/>
</g>
</svg>
