<svg clip-rule="evenodd" fill-rule="evenodd" stroke-linejoin="round" stroke-miterlimit="2" viewBox="0 0 512 512" xmlns="http://www.w3.org/2000/svg"><path d="m449.446 0c34.525 0 62.554 28.03 62.554 62.554v386.892c0 34.524-28.03 62.554-62.554 62.554h-386.892c-34.524 0-62.554-28.03-62.554-62.554v-386.892c0-34.524 28.029-62.554 62.554-62.554h386.892zm6.245 330.656c.918-13.824-.208-27.022-3.408-39.661-3.229-12.658-8.408-23.944-15.66-33.809-7.262-9.885-16.512-17.781-27.778-23.613-11.324-5.908-24.513-8.805-39.585-8.805-13.653 0-25.98 2.424-37.161 7.243-11.172 4.847-20.763 11.475-28.858 19.873-8.076 8.35-14.23 18.31-18.661 29.852-4.355 11.503-6.58 23.944-6.58 37.265 0 13.775 2.14 26.491 6.391 37.975 4.298 11.541 10.329 21.369 18.093 29.681 7.972 8.285 17.439 14.628 28.772 19.163 11.343 4.469 23.973 6.741 38.004 6.741 20.138 0 37.407-4.611 51.58-13.861 14.344-9.221 24.844-24.531 31.774-45.975h-43.097c-1.667 5.51-5.984 10.822-13.075 15.792-7.158 4.98-15.679 7.47-25.544 7.47-13.729 0-24.323-3.597-31.66-10.755-7.347-7.158-12.1-20.488-12.1-34.576zm-280.454 77.294c11.04 0 21.805-1.391 32.171-4.137 10.491-2.755 19.835-6.997 27.987-12.763 8.086-5.718 14.647-13.131 19.466-22.277 4.781-9.042 7.167-19.778 7.167-32.257 0-15.394-3.664-28.517-11.134-39.49-7.432-10.897-18.661-18.557-33.781-22.912 11.106-5.264 19.428-12.033 25.089-20.289 5.634-8.275 8.436-18.623 8.436-31.007 0-11.447-1.884-21.132-5.624-28.867-3.844-7.849-9.212-14.079-16.066-18.766-6.969-4.686-15.196-8.104-24.853-10.149-9.705-2.111-20.328-3.124-32.096-3.124h-115.999v246.038zm-6.173-109.655c11.655 0 21.132 2.679 28.252 8.076 7.091 5.463 10.67 14.476 10.67 27.153 0 6.467-1.051 11.826-3.238 15.954-2.178 4.146-5.188 7.422-8.805 9.808-3.636 2.481-7.925 4.166-12.772 5.217-4.772 1.07-9.847 1.543-15.177 1.543h-57.829v-67.751zm226.403-26.671c-5.823-6.428-15.66-9.913-27.675-9.913-7.82 0-14.287 1.316-19.475 3.996-5.075 2.651-9.221 5.936-12.393 9.818-3.162 3.938-5.302 8.104-6.561 12.554-1.25 4.336-2.007 8.265-2.225 11.74h79.605c-1.165-12.478-5.435-21.709-11.276-28.195zm-234.612-67.799c4.801.001 9.469.341 13.937 1.212 4.535.786 8.455 2.225 11.92 4.318 3.484 2.016 6.258 4.885 8.35 8.559 2.017 3.673 3.011 8.407 3.011 14.125 0 10.32-3.011 17.828-9.24 22.382-6.296 4.62-14.249 6.893-23.84 6.893h-54.828v-57.489zm255.999-1.126v-24.276h-99.733v24.276z"/></svg>